PathFileType	4	(X/Y/Z)	C:/Users/opensim2020/Desktop/walking_exp_matlab/subject01_walking10_straight_01.trc																																																																																																																															
DataRate	CameraRate	NumFrames	NumMarkers	Units	OrigDataRate	OrigDataStartFrame	OrigNumFrames																																																																																																																											
100	100	4	43	mm	100	965	349																																																																																																																											
Frame#	Time	LFHD			RFHD			LBHD			RBHD			C7			T10			CLAV			STRN			RBAK			LSHO			LUPA			LELB			LFRM			LWRA			LWRB			LFIN			RSHO			RUPA			RELB			RFRM			RWRA			RWRB			RFIN			LASI			RASI			LPSI			RPSI			LTHI			LKNE			LTIB			LANK			LHEE			LTOE			RTHI			RKNE			RTIB			RANK			RHEE			RTOE			*39			*40			*41			*42		
		X1	Y1	Z1	X2	Y2	Z2	X3	Y3	Z3	X4	Y4	Z4	X5	Y5	Z5	X6	Y6	Z6	X7	Y7	Z7	X8	Y8	Z8	X9	Y9	Z9	X10	Y10	Z10	X11	Y11	Z11	X12	Y12	Z12	X13	Y13	Z13	X14	Y14	Z14	X15	Y15	Z15	X16	Y16	Z16	X17	Y17	Z17	X18	Y18	Z18	X19	Y19	Z19	X20	Y20	Z20	X21	Y21	Z21	X22	Y22	Z22	X23	Y23	Z23	X24	Y24	Z24	X25	Y25	Z25	X26	Y26	Z26	X27	Y27	Z27	X28	Y28	Z28	X29	Y29	Z29	X30	Y30	Z30	X31	Y31	Z31	X32	Y32	Z32	X33	Y33	Z33	X34	Y34	Z34	X35	Y35	Z35	X36	Y36	Z36	X37	Y37	Z37	X38	Y38	Z38	X39	Y39	Z39	X40	Y40	Z40	X41	Y41	Z41	X42	Y42	Z42	X43	Y43	Z43
																																																																																																																																		
44	0.43	-859.27118	1678.1908	1380.14124	-835.58057	1688.26929	1491.35645	-956.39142	1601.59998	1399.43958	-933.80011	1610.62476	1517.67822	-957.85602	1433.59888	1428.41541	-994.89215	1140.797	1431.44629	-814.99048	1366.60034	1429.34277	-773.84741	1209.20496	1422.70911	-1014.84167	1239.48438	1500.86462	-869.52155	1399.83875	1269.06665	-885.48431	1215.71729	1180.26257	-892.22821	1065.81934	1178.54675	-851.88342	957.87042	1163.25732	-786.79297	839.49683	1198.98169	-832.31213	836.80725	1160.98621	-785.56427	766.27045	1162.97742	-878.67041	1390.82544	1580.43091	-934.95355	1187.84229	1675.51624	-930.55164	1063.36499	1675.87695	-900.17847	947.06897	1706.29761	-815.36505	832.72083	1690.42065	-861.02881	832.77844	1727.56128	-822.97833	755.85895	1727.44897	-822.29773	931.41028	1323.68896	-817.72614	936.93463	1541.56726	-1008.7168	944.61725	1381.22412	-1003.09564	947.7887	1527.04419	-839.71198	599.70721	1278.97644	-839.16504	465.84155	1299.70532	-882.42529	279.96576	1295.75146	-895.40247	63.88817	1357.88916	-938.78296	34.91256	1411.20886	-746.8949	30.56817	1351.30774	-823.4303	609.01044	1621.30188	-808.36298	451.39307	1610.89258	-953.61548	350.31439	1610.42822	-1100.14282	207.84285	1561.50366	-1153.36108	210.03877	1502.67969	-1043.44897	75.36648	1580.12341	-859.24744	1716.74268	1471.22278	1973.20276	1023.45251	-3101.88696	2012.54626	1022.08698	-3140.62817	NaN	NaN	NaN
45	0.44	-853.53986	1678.37317	1379.0321	-829.95551	1688.50281	1490.22485	-950.72601	1601.89929	1398.17114	-928.20648	1610.90833	1516.48462	-952.20105	1433.72815	1426.9613	-989.62036	1141.19543	1430.25464	-809.46069	1366.77222	1428.18176	-768.47479	1209.35596	1421.57922	-1009.57343	1239.84546	1499.35022	-863.7796	1400.08655	1267.82935	-878.82922	1216.02856	1178.9884	-884.25311	1066.17505	1177.07068	-842.78967	958.51245	1161.84998	-776.55939	840.85461	1197.65149	-821.99365	837.68182	1159.67822	-774.45276	767.74634	1161.50708	-873.4939	1391.01855	1579.15857	-930.74231	1188.07825	1673.82788	-926.61725	1063.61853	1674.0105	-896.60461	947.17761	1704.50232	-811.83636	832.73419	1688.97449	-857.78986	832.77911	1725.83594	-819.73987	755.90381	1725.92615	-817.42456	931.53967	1322.3468	-812.19257	937.6333	1540.0752	-1003.61566	944.76941	1380.59314	-997.43121	948.10382	1526.48547	-836.24304	599.52618	1278.47766	-836.87323	465.57156	1299.19373	-881.06683	279.88531	1295.48718	-895.2207	63.88225	1357.97327	-938.91412	35.27031	1410.9447	-746.89728	30.50872	1351.15088	-812.78943	611.12384	1620.11108	-796.26074	453.18933	1609.12927	-940.89197	351.06357	1609.0177	-1085.19763	205.87819	1560.30103	-1139.14099	206.75067	1502.03943	-1024.36682	75.44249	1578.42053	-853.55365	1716.94409	1470.05994	1973.104	1023.42206	-3101.89282	2012.54346	1022.07477	-3140.64038	NaN	NaN	NaN
46	0.45	-847.68903	1678.70178	1377.89929	-824.20233	1688.60291	1489.15649	-944.99683	1602.19104	1396.98804	-922.62799	1611.14709	1515.30823	-946.633	1434.0304	1425.6499	-984.29712	1141.5072	1429.15491	-804.01318	1366.93896	1427.05432	-763.06561	1209.44958	1420.44751	-1004.25317	1240.18445	1497.93616	-858.07117	1400.35315	1266.68079	-872.21899	1216.26575	1177.81299	-876.39941	1066.34729	1175.6145	-833.86078	959.11084	1160.44763	-766.34052	842.24799	1196.39368	-811.80292	838.53479	1158.44836	-763.47675	769.23785	1160.0376	-868.32886	1391.28455	1577.95984	-926.48669	1188.32556	1672.25085	-922.69293	1063.83728	1672.21301	-893.04749	947.27924	1702.78967	-808.24054	832.73889	1687.57043	-854.4693	832.76331	1724.12402	-816.53772	755.90375	1724.32251	-812.94409	931.45239	1321.31848	-806.73944	938.3504	1538.64771	-998.47247	944.86438	1379.92175	-991.76385	948.50153	1525.87073	-832.79706	599.28802	1277.91431	-834.34296	465.18741	1298.75928	-879.55261	279.8132	1295.18066	-895.21216	63.98546	1357.94128	-938.94977	35.40463	1410.99133	-747.01636	30.59311	1350.98364	-803.44086	612.47864	1618.77942	-784.46222	454.89035	1607.35571	-927.5213	350.905	1607.2041	-1069.57312	203.08269	1559.18445	-1124.40601	202.56026	1501.52161	-1004.75793	75.05739	1576.83374	-847.82367	1717.18372	1468.95752	1973.20203	1023.50958	-3101.83643	2012.54382	1022.02277	-3140.66528	NaN	NaN	NaN
47	0.46	-842.01971	1678.82935	1376.81921	-818.57635	1688.79944	1488.02161	-939.33569	1602.4248	1395.81946	-917.02106	1611.38892	1514.14465	-941.19019	1434.25305	1424.39966	-978.9964	1141.80493	1428.11633	-798.47705	1367.09888	1426.08032	-757.69312	1209.57349	1419.39063	-998.97327	1240.50232	1496.66711	-852.4046	1400.5531	1265.61597	-865.74152	1216.48889	1176.65002	-868.87372	1066.60059	1174.23657	-825.05475	959.70605	1159.17139	-756.12213	843.6723	1195.09033	-801.59937	839.45526	1157.23975	-752.47083	770.74219	1158.69958	-863.11243	1391.42725	1576.91638	-922.15338	1188.58398	1670.80115	-918.755	1063.99792	1670.57825	-889.44556	947.38556	1701.17957	-804.59229	832.78613	1686.21985	-851.09167	832.84943	1722.57886	-813.20563	755.83972	1722.80933	-807.75281	931.63519	1319.94653	-801.29218	939.04266	1537.297	-993.46844	944.93231	1379.35083	-986.21545	948.9256	1525.33716	-829.29706	598.98907	1277.49146	-831.71625	464.84464	1298.36035	-877.8241	279.66153	1294.93347	-895.39166	64.28571	1358.0022	-938.94537	35.54979	1411.01563	-746.73425	30.24036	1351.22839	-796.95239	611.94147	1615.73425	-772.9566	456.58044	1605.60132	-914.55231	350.95728	1605.61414	-1053.79211	199.82501	1557.97388	-1109.13074	197.72809	1500.74585	-984.81525	74.24572	1575.18713	-842.2265	1717.3103	1467.8092	1973.04773	1023.43042	-3102.00635	2012.64221	1022.12506	-3140.7627	NaN	NaN	NaN
